<?xml version="1.0" encoding="utf-8"?>
<!-- Generator: Adobe Illustrator 25.4.0, SVG Export Plug-In . SVG Version: 6.00 Build 0)  -->
<svg version="1.1" id="Layer_1" xmlns="http://www.w3.org/2000/svg" xmlns:xlink="http://www.w3.org/1999/xlink" x="0px" y="0px"
	 viewBox="0 0 131.3 86.1" style="enable-background:new 0 0 131.3 86.1;" xml:space="preserve">
<style type="text/css">
	.st0{fill:none;stroke:#231F20;stroke-width:0.5;stroke-miterlimit:10;}
	.st1{fill:#FFFFFF;stroke:#2BB673;stroke-miterlimit:10;}
	.st2{fill:#FFFFFF;stroke:#0000FF;stroke-miterlimit:10;}
	.st3{fill:#FFFFFF;stroke:#231F20;stroke-miterlimit:10;}
</style>
<g>
	<line class="st0" x1="90.9" y1="5.9" x2="120.2" y2="35.5"/>
	<line class="st0" x1="90.9" y1="20.7" x2="120.2" y2="35.5"/>
	<line class="st0" x1="90.9" y1="35.5" x2="120.2" y2="35.5"/>
	<line class="st0" x1="90.9" y1="50.3" x2="120.2" y2="35.5"/>
	<line class="st0" x1="90.9" y1="65.2" x2="120.2" y2="35.5"/>
	<line class="st0" x1="90.9" y1="80" x2="120.2" y2="35.5"/>
</g>
<g>
	<line class="st0" x1="90.9" y1="80" x2="120.2" y2="50.3"/>
	<line class="st0" x1="90.9" y1="65.2" x2="120.2" y2="50.3"/>
	<line class="st0" x1="90.9" y1="50.3" x2="120.2" y2="50.3"/>
	<line class="st0" x1="90.9" y1="35.5" x2="120.2" y2="50.3"/>
	<line class="st0" x1="90.9" y1="20.7" x2="120.2" y2="50.3"/>
	<line class="st0" x1="90.9" y1="5.9" x2="120.2" y2="50.3"/>
</g>
<g>
	<line class="st0" x1="50.4" y1="5.9" x2="80.8" y2="5.9"/>
	<line class="st0" x1="80.8" y1="20.7" x2="50.4" y2="5.9"/>
	<line class="st0" x1="80.8" y1="35.5" x2="50.4" y2="5.9"/>
	<line class="st0" x1="80.8" y1="50.3" x2="50.4" y2="5.9"/>
	<line class="st0" x1="80.8" y1="65.2" x2="50.4" y2="5.9"/>
	<line class="st0" x1="80.8" y1="80" x2="50.4" y2="5.9"/>
	<line class="st0" x1="50.4" y1="20.7" x2="80.8" y2="5.9"/>
	<line class="st0" x1="80.8" y1="20.7" x2="50.4" y2="20.7"/>
	<line class="st0" x1="80.8" y1="35.5" x2="50.4" y2="20.7"/>
	<line class="st0" x1="80.8" y1="50.3" x2="50.4" y2="20.7"/>
	<line class="st0" x1="80.8" y1="65.2" x2="50.4" y2="20.7"/>
	<line class="st0" x1="80.8" y1="80" x2="50.4" y2="20.7"/>
	<line class="st0" x1="50.4" y1="35.5" x2="80.8" y2="5.9"/>
	<line class="st0" x1="80.8" y1="20.7" x2="50.4" y2="35.5"/>
	<line class="st0" x1="80.8" y1="35.5" x2="50.4" y2="35.5"/>
	<line class="st0" x1="80.8" y1="50.3" x2="50.4" y2="35.5"/>
	<line class="st0" x1="80.8" y1="65.2" x2="50.4" y2="35.5"/>
	<line class="st0" x1="80.8" y1="80" x2="50.4" y2="35.5"/>
</g>
<g>
	<line class="st0" x1="50.4" y1="80" x2="80.8" y2="80"/>
	<line class="st0" x1="80.8" y1="65.2" x2="50.4" y2="80"/>
	<line class="st0" x1="80.8" y1="50.3" x2="50.4" y2="80"/>
	<line class="st0" x1="80.8" y1="35.5" x2="50.4" y2="80"/>
	<line class="st0" x1="80.8" y1="20.7" x2="50.4" y2="80"/>
	<line class="st0" x1="80.8" y1="5.9" x2="50.4" y2="80"/>
	<line class="st0" x1="50.4" y1="65.2" x2="80.8" y2="80"/>
	<line class="st0" x1="80.8" y1="65.2" x2="50.4" y2="65.2"/>
	<line class="st0" x1="80.8" y1="50.3" x2="50.4" y2="65.2"/>
	<line class="st0" x1="80.8" y1="35.5" x2="50.4" y2="65.2"/>
	<line class="st0" x1="80.8" y1="20.7" x2="50.4" y2="65.2"/>
	<line class="st0" x1="80.8" y1="5.9" x2="50.4" y2="65.2"/>
	<line class="st0" x1="50.4" y1="50.3" x2="80.8" y2="80"/>
	<line class="st0" x1="80.8" y1="65.2" x2="50.4" y2="50.3"/>
	<line class="st0" x1="80.8" y1="50.3" x2="50.4" y2="50.3"/>
	<line class="st0" x1="80.8" y1="35.5" x2="50.4" y2="50.3"/>
	<line class="st0" x1="80.8" y1="20.7" x2="50.4" y2="50.3"/>
	<line class="st0" x1="80.8" y1="5.9" x2="50.4" y2="50.3"/>
</g>
<g>
	<line class="st0" x1="11" y1="20.7" x2="40.3" y2="5.9"/>
	<line class="st0" x1="11" y1="35.5" x2="40.3" y2="5.9"/>
	<line class="st0" x1="11" y1="20.7" x2="40.3" y2="20.7"/>
	<line class="st0" x1="40.3" y1="35.5" x2="11" y2="20.7"/>
	<line class="st0" x1="40.3" y1="50.3" x2="11" y2="20.7"/>
	<line class="st0" x1="40.3" y1="65.2" x2="11" y2="20.7"/>
	<line class="st0" x1="40.3" y1="80" x2="11" y2="20.7"/>
	<line class="st0" x1="40.3" y1="20.7" x2="11" y2="35.5"/>
	<line class="st0" x1="40.3" y1="35.5" x2="11" y2="35.5"/>
	<line class="st0" x1="40.3" y1="50.3" x2="11" y2="35.5"/>
	<line class="st0" x1="40.3" y1="65.2" x2="11" y2="35.5"/>
	<line class="st0" x1="40.3" y1="80" x2="11" y2="35.5"/>
</g>
<g>
	<line class="st0" x1="11" y1="65.2" x2="40.3" y2="80"/>
	<line class="st0" x1="11" y1="50.3" x2="40.3" y2="80"/>
	<line class="st0" x1="11" y1="65.2" x2="40.3" y2="65.2"/>
	<line class="st0" x1="40.3" y1="50.3" x2="11" y2="65.2"/>
	<line class="st0" x1="40.3" y1="35.5" x2="11" y2="65.2"/>
	<line class="st0" x1="40.3" y1="20.7" x2="11" y2="65.2"/>
	<line class="st0" x1="40.3" y1="5.9" x2="11" y2="65.2"/>
	<line class="st0" x1="40.3" y1="65.2" x2="11" y2="50.3"/>
	<line class="st0" x1="40.3" y1="50.3" x2="11" y2="50.3"/>
	<line class="st0" x1="40.3" y1="35.5" x2="11" y2="50.3"/>
	<line class="st0" x1="40.3" y1="20.7" x2="11" y2="50.3"/>
	<line class="st0" x1="40.3" y1="5.9" x2="11" y2="50.3"/>
</g>
<circle class="st1" cx="125.3" cy="35.5" r="5.1"/>
<circle class="st1" cx="125.3" cy="50.3" r="5.1"/>
<circle class="st2" cx="5.9" cy="20.7" r="5.1"/>
<circle class="st2" cx="5.9" cy="35.5" r="5.1"/>
<circle class="st2" cx="5.9" cy="50.3" r="5.1"/>
<circle class="st2" cx="5.9" cy="65.2" r="5.1"/>
<circle class="st3" cx="45.4" cy="20.7" r="5.1"/>
<circle class="st3" cx="45.4" cy="35.5" r="5.1"/>
<circle class="st3" cx="45.4" cy="5.9" r="5.1"/>
<circle class="st3" cx="45.4" cy="50.3" r="5.1"/>
<circle class="st3" cx="45.4" cy="65.2" r="5.1"/>
<circle class="st3" cx="45.4" cy="80" r="5.1"/>
<circle class="st3" cx="85.8" cy="20.7" r="5.1"/>
<circle class="st3" cx="85.8" cy="35.5" r="5.1"/>
<circle class="st3" cx="85.8" cy="5.9" r="5.1"/>
<circle class="st3" cx="85.8" cy="50.3" r="5.1"/>
<circle class="st3" cx="85.8" cy="65.2" r="5.1"/>
<circle class="st3" cx="85.8" cy="80" r="5.1"/>
</svg>
